<?xml version="1.0" standalone="no"?>
<!DOCTYPE svg PUBLIC "-//W3C//DTD SVG 20010904//EN"
 "http://www.w3.org/TR/2001/REC-SVG-20010904/DTD/svg10.dtd">
<svg version="1.0" xmlns="http://www.w3.org/2000/svg"
 width="918.000000pt" height="1280.000000pt" viewBox="0 0 918.000000 1280.000000"
 preserveAspectRatio="xMidYMid meet">
<g transform="translate(0.000000,1280.000000) scale(0.100000,-0.100000)"
fill="#d42487" stroke="none">
<path d="M1816 12423 c-3 -43 -16 -121 -27 -173 -57 -252 -58 -322 -9 -453 20
-52 41 -89 174 -306 67 -108 97 -183 121 -300 35 -173 157 -453 254 -584 68
-93 261 -297 352 -373 161 -134 300 -355 354 -560 8 -31 17 -60 21 -63 3 -3
15 5 25 18 20 25 19 71 -3 98 -5 7 -7 17 -3 23 10 16 -21 93 -45 115 -11 10
-20 26 -20 35 0 10 -8 28 -19 41 -10 13 -26 40 -36 59 -19 38 -46 73 -266 351
-126 158 -157 204 -211 315 -35 71 -76 149 -90 174 -19 32 -30 70 -37 130 -8
64 -21 106 -51 168 -23 49 -40 99 -40 120 -1 21 -8 55 -16 77 -32 83 -38 135
-40 375 -2 264 -6 292 -64 453 -39 105 -80 167 -143 215 -29 22 -72 58 -95 81
-66 63 -79 57 -86 -36z m152 -98 c79 -83 112 -140 141 -244 34 -122 43 -216
44 -470 l2 -246 53 -150 c30 -82 75 -215 101 -295 45 -134 62 -181 105 -282
14 -32 14 -38 2 -38 -17 0 -94 101 -108 143 -6 18 -26 54 -45 81 -18 26 -33
56 -33 65 0 9 -6 25 -14 36 -14 21 -65 197 -86 299 -12 59 -110 262 -188 388
-109 177 -145 280 -145 408 0 72 5 97 33 165 21 52 33 101 35 140 2 33 3 63 4
68 3 21 36 -1 99 -68z"/>
<path d="M2170 12271 c-16 -31 -14 -37 56 -134 36 -51 81 -121 99 -157 47 -94
145 -420 250 -832 37 -143 67 -238 99 -307 25 -55 46 -105 46 -110 0 -5 15
-29 33 -53 18 -24 64 -88 102 -143 210 -305 378 -477 564 -580 94 -52 117 -54
228 -24 59 16 90 20 136 14 67 -7 210 -49 245 -71 37 -24 16 -33 -41 -17 -70
20 -279 28 -363 14 -71 -13 -166 -45 -187 -64 -7 -7 -45 -34 -84 -60 -202
-135 -323 -349 -463 -814 -48 -158 -57 -168 -105 -112 -14 18 -39 58 -55 89
-46 90 -104 151 -131 134 -6 -3 6 -20 28 -39 22 -19 58 -69 83 -115 24 -45 61
-97 82 -114 46 -40 46 -38 18 -291 -43 -397 -37 -668 22 -860 46 -153 114
-313 159 -378 27 -38 38 -62 32 -68 -12 -12 -230 55 -253 78 -13 13 -10 14 28
12 29 -2 47 2 59 14 17 17 16 19 -12 42 -17 14 -49 37 -73 52 -32 19 -79 73
-172 197 -147 197 -268 334 -323 366 -22 12 -67 44 -103 71 -35 27 -67 49 -72
49 -5 0 -21 9 -36 21 -37 29 -159 95 -202 109 -52 17 -205 99 -234 125 -14 13
-53 37 -87 54 -85 42 -354 225 -374 253 -14 21 -130 264 -158 332 -19 47 -33
17 -32 -71 1 -43 1 -161 1 -262 0 -101 5 -209 11 -240 6 -31 15 -137 19 -236
15 -358 54 -492 191 -656 57 -67 204 -198 283 -250 161 -107 393 -198 699
-275 97 -24 275 -76 395 -114 263 -85 440 -133 587 -159 71 -12 128 -28 162
-46 43 -23 55 -25 68 -15 21 17 19 24 -10 40 -14 8 -28 24 -31 37 -4 13 -16
28 -28 34 -55 28 -168 111 -248 182 -99 87 -265 199 -373 251 -94 46 -197 77
-395 120 -395 86 -440 100 -550 177 -68 48 -170 145 -170 162 0 4 -25 37 -55
72 -49 58 -68 95 -49 95 4 0 35 -18 70 -40 35 -22 68 -40 73 -40 6 0 25 -13
43 -28 41 -35 66 -45 200 -77 58 -14 141 -39 184 -56 42 -16 93 -30 113 -31
20 0 50 -9 67 -19 17 -11 37 -19 44 -19 48 0 411 -193 373 -198 -27 -4 -320
74 -503 134 -153 50 -329 132 -428 199 -75 49 -82 52 -82 30 0 -21 120 -97
254 -160 141 -67 289 -117 593 -200 133 -36 293 -84 355 -106 62 -22 142 -48
177 -59 53 -15 70 -26 107 -68 24 -28 74 -74 112 -103 37 -29 94 -78 128 -109
42 -39 107 -81 220 -140 306 -161 307 -161 359 -163 56 -2 71 16 26 31 -38 13
-222 204 -209 217 2 3 54 -33 114 -78 118 -90 203 -137 244 -137 42 0 41 9 -6
52 -68 63 -54 74 26 22 92 -59 163 -90 280 -122 85 -23 116 -26 285 -27 105
-1 202 -3 218 -4 31 -1 147 -101 160 -138 6 -15 17 -23 33 -23 31 0 38 30 29
115 -9 84 0 110 91 258 84 138 129 258 169 458 28 143 32 239 11 313 -8 28
-24 88 -35 134 -92 369 -373 632 -676 632 -73 0 -273 -46 -387 -90 -116 -43
-263 -162 -329 -264 -83 -126 -136 -315 -146 -516 -7 -151 7 -269 47 -394 16
-50 27 -92 25 -94 -17 -18 -95 108 -135 217 -37 101 -71 235 -65 253 3 7 1 44
-3 81 -14 111 15 236 85 376 90 180 138 254 201 317 141 141 321 207 567 208
150 1 229 -15 368 -75 111 -47 184 -91 253 -152 61 -55 169 -211 214 -310 32
-70 70 -212 70 -259 0 -16 4 -28 9 -28 50 0 49 227 -3 385 -22 68 -29 91 -75
260 -54 195 -203 442 -350 578 -114 105 -386 265 -536 315 -166 55 -442 28
-630 -63 -157 -76 -377 -265 -469 -404 -58 -87 -121 -220 -141 -296 -23 -92
-19 -256 11 -431 68 -400 102 -491 293 -794 95 -151 123 -225 53 -140 -20 25
-60 68 -88 96 -189 189 -354 714 -354 1131 0 282 70 482 231 656 161 175 363
258 869 358 69 14 193 5 295 -21 206 -53 453 -228 550 -390 21 -36 79 -126
129 -200 49 -74 115 -189 147 -255 65 -138 176 -437 185 -498 10 -77 14 -87
33 -87 57 0 75 93 74 380 0 163 -4 231 -16 282 -33 135 -97 314 -138 383 -23
39 -52 94 -65 122 -14 31 -56 88 -102 137 -43 46 -100 114 -127 150 -39 52
-85 92 -207 183 -87 63 -158 120 -158 124 0 5 -6 9 -13 9 -7 0 -31 13 -53 29
-45 33 -268 134 -399 181 -49 17 -107 40 -127 51 -20 10 -43 19 -51 19 -27 0
-108 41 -104 53 2 7 28 14 57 17 59 6 75 24 36 41 -14 7 -28 21 -32 32 -3 11
-55 90 -115 176 -111 160 -131 194 -180 317 -55 138 -59 164 -57 453 1 317 -9
375 -91 514 -64 107 -117 166 -199 220 -112 75 -383 210 -655 327 -363 156
-549 251 -622 320 -27 26 -73 50 -95 50 -5 0 -14 -9 -20 -19z m188 -140 c132
-76 464 -234 774 -366 102 -43 347 -186 428 -248 104 -81 195 -225 231 -366
18 -68 20 -104 17 -341 l-3 -265 29 -85 c65 -191 143 -339 242 -462 25 -31 43
-61 40 -66 -4 -6 -35 -1 -79 13 -75 24 -219 48 -359 60 -62 6 -87 4 -128 -11
l-51 -18 -57 29 c-143 75 -271 189 -393 350 -54 72 -126 166 -159 210 -132
173 -214 352 -255 560 -14 72 -41 182 -61 245 -20 63 -64 212 -99 330 -61 213
-79 255 -185 433 -28 47 -16 47 68 -2z m1707 -2346 c77 -26 205 -73 285 -105
80 -31 162 -63 183 -70 37 -12 261 -127 322 -165 17 -11 49 -36 71 -56 23 -21
59 -48 80 -62 22 -13 93 -78 159 -143 97 -95 142 -150 226 -274 130 -192 167
-274 217 -475 34 -136 45 -225 45 -360 0 -126 -12 -190 -33 -169 -5 5 -33 83
-63 175 -30 91 -69 194 -87 230 -49 97 -130 237 -146 250 -8 6 -14 17 -14 24
0 7 -16 34 -35 61 -19 27 -63 92 -97 144 -154 236 -388 389 -653 427 -133 18
-211 14 -375 -21 -191 -42 -289 -71 -397 -119 -299 -132 -492 -350 -563 -638
-59 -235 -26 -617 82 -948 91 -283 227 -507 442 -728 44 -46 76 -86 73 -90 -4
-4 -67 23 -140 59 -91 46 -157 87 -212 133 -44 37 -121 100 -171 140 -192 154
-328 381 -406 682 l-41 158 0 220 c0 170 6 274 26 460 25 232 28 246 87 433
89 284 154 435 242 565 145 213 368 322 643 313 101 -3 123 -7 250 -51z m422
-789 c101 -33 331 -150 432 -220 60 -41 97 -79 186 -191 145 -183 169 -219
204 -307 39 -95 86 -267 77 -276 -4 -4 -22 11 -39 33 -146 185 -293 277 -546
341 -73 19 -120 24 -216 24 -309 0 -514 -94 -678 -311 -75 -100 -199 -364
-229 -488 -26 -112 -21 -296 12 -411 26 -91 102 -253 158 -335 66 -97 33 -97
-56 0 -169 184 -402 656 -433 875 -54 379 -59 487 -29 605 44 172 189 369 366
496 80 58 281 154 374 179 112 30 303 23 417 -14z m-3372 -421 c26 -30 53 -55
60 -55 6 0 22 -11 35 -25 13 -14 28 -25 34 -25 13 0 76 -57 76 -69 0 -5 26
-23 58 -40 31 -18 100 -59 152 -93 52 -33 120 -71 150 -85 30 -14 73 -33 95
-44 22 -10 83 -35 135 -55 115 -44 210 -98 276 -157 27 -24 63 -49 81 -56 18
-7 68 -52 111 -100 92 -100 296 -386 287 -401 -4 -7 -38 6 -88 33 -45 25 -93
48 -107 52 -14 4 -59 24 -100 45 -89 44 -161 68 -330 110 -177 44 -269 75
-336 117 -33 19 -76 45 -96 57 -119 68 -229 203 -335 412 -32 63 -54 94 -65
94 -42 0 -30 -51 43 -182 27 -48 53 -104 58 -125 22 -94 131 -293 161 -293 4
0 31 -30 59 -67 81 -107 220 -230 290 -257 76 -30 219 -68 406 -106 236 -49
463 -127 533 -182 19 -16 40 -28 47 -28 26 0 362 -262 373 -292 14 -33 -200
17 -583 137 -82 25 -251 73 -375 105 -124 32 -272 75 -330 95 -135 47 -322
136 -366 175 -19 16 -38 30 -42 30 -19 0 -239 214 -270 262 -108 168 -131 266
-152 653 -15 272 -19 398 -14 407 10 15 20 8 69 -47z m3689 -385 c310 -79 496
-338 562 -784 l17 -112 -33 -145 c-54 -239 -91 -338 -175 -473 -41 -66 -77
-133 -81 -149 -9 -41 -29 -44 -93 -12 -55 27 -60 28 -241 30 -215 3 -262 11
-412 71 -181 72 -287 155 -350 271 -54 99 -114 359 -112 488 1 82 40 250 84
364 64 165 187 310 315 371 87 42 305 98 381 99 33 1 95 -8 138 -19z"/>
<path d="M2500 11917 c0 -15 52 -91 69 -101 5 -3 12 -20 16 -36 4 -19 25 -46
57 -73 28 -23 116 -103 196 -177 173 -161 186 -183 255 -445 25 -93 55 -195
66 -226 29 -75 98 -173 210 -293 51 -55 117 -129 146 -166 58 -73 301 -305
319 -305 6 0 13 11 14 24 3 19 -19 45 -112 135 -109 105 -117 116 -164 216
-60 126 -84 206 -83 269 4 182 -4 248 -46 363 -46 129 -116 240 -200 319 -53
49 -101 81 -211 137 -154 80 -345 210 -452 309 -71 66 -80 71 -80 50z m482
-373 c170 -87 227 -133 300 -241 118 -176 167 -322 168 -504 0 -52 8 -117 21
-168 11 -45 18 -85 15 -88 -11 -12 -58 30 -148 133 -100 113 -154 198 -163
254 -21 131 -94 373 -131 437 -13 23 -71 85 -129 139 -153 142 -146 146 67 38z"/>
<path d="M4510 8011 c-153 -62 -243 -112 -295 -166 -65 -66 -116 -168 -140
-279 -24 -106 -17 -455 10 -529 23 -63 104 -150 228 -244 129 -98 163 -112
295 -123 59 -5 123 -14 142 -20 19 -5 53 -10 75 -10 62 0 107 -17 152 -55 23
-19 44 -35 48 -35 12 0 33 67 45 145 8 57 26 110 61 185 67 145 83 239 83 490
1 283 -26 371 -150 494 -98 98 -158 135 -250 151 -113 20 -248 18 -304 -4z
m252 -56 c198 -41 328 -162 379 -350 19 -69 22 -108 23 -275 1 -233 -9 -279
-89 -452 -31 -64 -58 -136 -61 -161 -9 -67 -13 -70 -65 -52 -51 19 -194 41
-324 51 -111 8 -127 14 -259 104 -112 76 -193 156 -227 222 -23 45 -53 293
-49 407 4 135 62 287 141 370 63 65 112 92 222 122 117 31 209 36 309 14z"/>
<path d="M4456 7876 c-35 -13 -87 -46 -129 -81 -60 -51 -76 -71 -104 -135 -19
-41 -43 -95 -55 -119 -18 -37 -20 -55 -14 -120 3 -43 19 -131 35 -197 16 -65
32 -138 36 -161 5 -35 17 -52 68 -100 152 -140 303 -200 401 -159 34 14 86 72
86 96 0 8 5 29 12 47 9 24 16 32 28 27 47 -20 97 -26 138 -15 41 11 112 63
112 82 0 5 9 28 19 52 55 123 53 324 -5 433 -36 67 -59 100 -122 169 -69 74
-144 127 -243 171 -95 42 -172 45 -263 10z m226 -37 c78 -31 181 -103 238
-167 61 -68 124 -189 140 -269 16 -73 8 -222 -15 -285 -20 -57 -74 -108 -113
-108 -39 0 -114 50 -142 94 -16 27 -28 36 -44 34 -17 -2 -21 -9 -19 -38 13
-183 4 -218 -63 -246 -49 -21 -101 -5 -199 61 -111 75 -174 141 -182 191 -3
21 -10 42 -15 45 -6 3 -12 28 -14 55 -2 27 -11 67 -20 88 -30 78 -34 125 -14
205 42 167 135 293 250 336 80 30 144 31 212 4z"/>
<path d="M1644 11795 c-3 -8 -1 -45 5 -82 20 -117 28 -265 18 -308 -14 -57
-13 -279 1 -415 6 -63 19 -189 27 -280 23 -234 30 -282 76 -490 63 -286 86
-368 134 -466 92 -191 198 -297 404 -404 96 -49 186 -108 295 -190 171 -128
234 -167 259 -157 10 4 18 23 21 54 3 26 11 73 16 104 6 30 10 101 10 157 0
68 5 114 15 140 15 36 14 43 -10 126 -47 163 -97 253 -202 363 -19 21 -45 52
-56 68 -12 17 -59 68 -104 114 -46 47 -83 90 -83 96 0 7 -9 20 -20 30 -11 10
-20 24 -20 31 0 7 -6 17 -14 21 -7 4 -18 18 -25 31 -7 12 -38 53 -69 90 -32
37 -62 78 -68 92 -6 14 -28 45 -48 68 -20 24 -36 49 -36 55 0 6 -7 18 -16 28
-51 56 -233 444 -282 599 -16 52 -50 136 -75 186 -45 89 -84 201 -91 259 -8
70 -47 120 -62 80z m120 -402 c13 -27 47 -111 76 -188 155 -418 333 -700 751
-1190 174 -204 198 -243 245 -400 36 -123 44 -309 19 -448 -10 -54 -21 -100
-25 -102 -17 -11 -64 18 -211 129 -107 80 -194 136 -293 187 -126 66 -150 82
-226 159 -142 142 -198 261 -266 556 -64 283 -81 370 -89 449 -3 39 -12 129
-20 200 -18 167 -26 642 -12 679 11 27 26 18 51 -31z"/>
<path d="M1753 11193 c3 -10 13 -65 22 -123 9 -58 41 -211 70 -340 29 -129 64
-298 79 -375 19 -102 35 -159 61 -210 19 -38 37 -80 40 -92 9 -34 81 -140 133
-195 26 -28 108 -104 182 -168 166 -144 237 -220 290 -310 22 -38 45 -72 51
-75 6 -4 14 -18 19 -31 11 -27 25 -31 33 -10 5 13 -4 55 -52 236 -22 86 -64
185 -83 197 -7 4 -24 29 -38 54 -70 128 -101 168 -218 283 -173 168 -277 313
-340 471 -69 173 -85 212 -98 226 -8 9 -32 107 -54 219 -22 111 -46 214 -53
229 -15 31 -52 43 -44 14z m239 -800 c8 -10 33 -51 57 -91 50 -86 110 -159
249 -305 56 -59 123 -136 148 -170 53 -72 114 -187 114 -217 0 -47 -30 -25
-257 188 -141 131 -196 204 -264 346 -75 156 -106 318 -47 249z"/>
<path d="M2290 11782 c0 -16 7 -49 15 -73 19 -52 48 -178 110 -479 94 -451
104 -479 278 -763 121 -195 176 -266 278 -356 46 -41 124 -109 173 -153 67
-59 96 -78 117 -78 44 0 37 31 -18 76 -27 21 -75 64 -109 94 -34 30 -97 87
-141 127 -88 79 -153 168 -297 408 -110 182 -141 265 -191 522 -20 98 -47 212
-61 253 -14 41 -39 132 -55 202 -29 132 -61 219 -85 239 -11 9 -14 6 -14 -19z"/>
<path d="M3380 11805 c0 -14 50 -47 94 -61 38 -12 71 -36 131 -93 44 -42 120
-111 168 -154 214 -192 320 -444 357 -852 42 -450 101 -595 323 -795 61 -55
116 -99 121 -97 26 8 16 77 -24 184 -101 264 -102 269 -101 643 1 142 -3 207
-13 240 -8 25 -17 72 -21 105 -4 33 -15 80 -26 104 -23 52 -22 51 -6 51 20 0
124 -149 171 -245 55 -111 68 -170 65 -277 -8 -262 -3 -444 15 -508 10 -36 22
-89 27 -118 21 -124 114 -266 237 -364 71 -56 140 -98 161 -98 6 0 15 9 21 20
10 18 5 28 -32 69 -24 27 -72 95 -108 152 -54 89 -66 115 -76 179 -25 145 -14
386 26 582 24 114 24 130 4 183 -45 119 -66 241 -41 232 32 -10 109 -196 136
-326 14 -68 17 -124 15 -266 -1 -99 1 -205 6 -235 5 -30 14 -98 20 -150 6 -52
19 -120 30 -150 10 -30 33 -100 51 -155 60 -187 166 -377 246 -441 21 -18 54
-55 73 -83 38 -55 59 -61 73 -21 7 20 4 33 -16 63 -14 20 -37 70 -50 110 -42
119 -65 178 -82 203 -45 69 -71 326 -56 548 11 154 43 471 61 606 17 126 13
174 -20 250 -16 38 -30 71 -30 74 0 12 -113 161 -139 184 -95 84 -410 258
-552 306 -41 13 -142 43 -224 65 -83 22 -217 60 -298 85 -81 25 -155 46 -165
46 -9 0 -44 13 -77 30 -79 39 -238 108 -295 128 -25 8 -67 23 -94 34 -46 17
-86 23 -86 13z m480 -225 c161 -62 372 -123 613 -180 112 -26 150 -41 296
-115 308 -157 408 -237 488 -391 28 -55 56 -123 63 -153 16 -67 9 -194 -22
-451 -33 -272 -33 -628 1 -790 13 -63 34 -139 48 -169 13 -31 23 -67 21 -81
l-3 -25 -38 35 c-56 52 -189 367 -235 560 -24 96 -41 328 -43 560 -1 85 -6
178 -11 205 -31 156 -173 427 -252 481 -17 12 -45 41 -61 64 -36 52 -61 70
-98 70 -45 0 -41 -22 19 -85 43 -45 71 -91 119 -190 88 -182 110 -311 84 -505
-14 -109 -39 -406 -39 -471 0 -31 11 -96 25 -144 14 -48 23 -90 20 -93 -11
-11 -57 45 -85 103 -34 71 -91 271 -96 335 -2 25 -3 126 -2 225 3 311 3 318
-16 375 -17 52 -40 107 -81 192 -10 21 -43 68 -74 104 -31 36 -66 82 -77 101
-49 80 -188 203 -231 203 -31 0 -29 -10 16 -88 117 -201 161 -314 172 -437 17
-187 19 -240 10 -288 -10 -55 4 -334 20 -412 6 -27 27 -90 46 -138 19 -49 32
-92 28 -95 -9 -10 -125 114 -172 184 -60 89 -73 118 -88 204 -8 44 -18 87 -24
97 -11 22 -27 136 -41 303 -20 227 -64 399 -145 560 -52 103 -107 178 -214
289 -45 45 -81 85 -81 87 0 11 46 0 140 -36z"/>
<path d="M5341 10996 c-9 -11 0 -28 45 -87 109 -143 164 -297 184 -520 6 -63
11 -118 11 -124 1 -44 -23 -404 -31 -455 -13 -85 -13 -301 0 -431 12 -123 30
-235 71 -454 33 -173 53 -220 86 -199 15 10 17 21 13 65 -9 94 -5 311 7 385
14 92 61 199 156 355 94 156 149 266 172 344 10 33 27 87 37 120 40 123 33
322 -13 371 -11 12 -55 73 -97 135 -51 75 -96 128 -132 157 -30 24 -91 77
-136 117 -50 46 -110 88 -160 113 -44 22 -86 48 -94 57 -38 45 -101 73 -119
51z m214 -165 c28 -16 78 -53 111 -82 34 -30 85 -74 114 -98 28 -24 77 -78
108 -120 30 -42 75 -98 99 -124 81 -92 101 -220 64 -412 -30 -155 -54 -210
-194 -445 -102 -173 -132 -240 -166 -373 -15 -59 -31 -109 -36 -110 -12 -3
-21 37 -47 198 -25 161 -31 454 -10 565 12 69 16 271 8 485 -5 158 -35 309
-82 425 -58 139 -57 142 31 91z"/>
<path d="M5714 10515 c-3 -8 0 -31 8 -52 9 -26 13 -91 13 -208 l-1 -170 -38
-110 c-33 -96 -39 -125 -43 -226 -6 -122 -1 -139 35 -120 27 14 126 182 158
266 53 142 67 293 39 413 -16 69 -62 165 -94 200 -25 25 -69 29 -77 7z m100
-117 c63 -129 68 -272 15 -443 -36 -117 -97 -225 -126 -225 -13 0 -15 9 -9 58
3 31 15 91 26 132 48 178 52 209 48 383 -2 92 0 167 4 167 4 0 23 -33 42 -72z"/>
<path d="M1532 10694 c-50 -99 -103 -322 -147 -615 -20 -129 -28 -232 -32
-399 -5 -208 -4 -231 16 -309 11 -47 21 -93 21 -103 0 -47 45 -132 102 -193
92 -99 180 -150 462 -269 195 -82 347 -168 561 -320 225 -160 275 -167 213
-29 -49 107 -69 180 -73 271 -2 42 -13 106 -24 141 -12 35 -21 72 -21 83 0 67
-112 170 -295 268 -151 81 -220 138 -307 249 -29 36 -73 89 -98 116 -26 28
-58 68 -73 90 -40 62 -94 245 -112 380 -8 66 -24 161 -34 210 -11 50 -27 128
-36 174 -16 84 -77 267 -94 284 -6 6 -17 -5 -29 -29z m47 -146 c25 -82 42
-170 75 -393 59 -394 79 -443 282 -678 142 -165 175 -195 284 -254 206 -113
271 -161 316 -238 26 -46 68 -222 78 -330 4 -38 14 -92 22 -118 9 -27 13 -51
10 -54 -10 -11 -74 24 -211 116 -176 119 -342 209 -428 232 -126 35 -416 199
-489 275 -36 39 -74 128 -88 205 -6 35 -16 89 -22 119 -17 82 -21 281 -8 405
18 166 69 438 135 723 8 32 32 27 44 -10z"/>
<path d="M1546 9957 c-15 -11 -17 -25 -13 -92 2 -44 11 -116 19 -160 9 -44 21
-124 26 -178 20 -189 96 -290 295 -391 46 -24 82 -36 93 -32 15 6 15 9 -5 29
-11 13 -21 29 -21 36 0 7 -13 29 -29 49 -52 65 -189 347 -211 433 -12 44 -32
101 -46 127 -13 26 -34 80 -45 120 -21 73 -31 82 -63 59z m108 -350 c38 -113
90 -224 156 -332 43 -71 48 -85 26 -85 -18 0 -107 67 -138 105 -63 76 -82 136
-107 350 -17 139 10 123 63 -38z"/>
<path d="M5447 10602 c-5 -7 -5 -108 -1 -225 5 -155 3 -232 -6 -287 -7 -42
-13 -164 -13 -280 -1 -187 1 -216 25 -325 47 -209 57 -248 67 -258 23 -23 22
26 -2 135 -45 201 -50 258 -47 538 5 460 -4 732 -23 702z"/>
<path d="M6180 10259 c0 -9 7 -38 15 -65 43 -147 40 -288 -10 -501 -27 -113
-119 -325 -260 -596 -92 -178 -125 -274 -150 -444 -21 -134 -23 -377 -5 -541
13 -116 13 -129 -8 -230 -12 -59 -31 -177 -43 -262 -25 -183 -52 -282 -121
-445 -28 -66 -63 -156 -78 -200 -15 -44 -57 -141 -93 -215 -80 -165 -122 -282
-143 -401 -10 -52 -22 -93 -30 -96 -19 -7 -322 46 -499 87 -49 11 -144 29
-210 40 -66 10 -191 35 -278 55 -196 44 -336 65 -449 65 -48 0 -147 9 -220 19
-73 11 -173 22 -223 26 -49 4 -139 17 -200 30 -236 51 -413 85 -443 85 -17 0
-33 4 -36 9 -5 8 -61 24 -96 27 -8 0 -26 4 -40 7 -14 4 -83 20 -155 37 -285
67 -412 113 -680 249 -216 109 -474 286 -568 390 -30 34 -42 40 -62 35 -14 -3
-25 -11 -25 -18 0 -6 20 -69 45 -140 179 -507 448 -944 807 -1312 182 -186
231 -209 563 -261 396 -62 674 -25 1146 153 494 185 668 229 1006 253 146 10
297 1 400 -25 80 -20 133 -41 133 -53 0 -4 -93 -11 -207 -14 -145 -3 -226 -10
-266 -21 -68 -19 -111 -20 -227 -5 -72 9 -91 9 -123 -4 -47 -20 -47 -38 1 -65
57 -32 147 -49 322 -61 277 -20 402 -43 495 -88 70 -35 102 -68 125 -130 35
-94 29 -99 -72 -54 -109 50 -177 62 -373 68 -320 10 -359 9 -388 -10 -15 -9
-37 -17 -51 -17 -13 0 -87 -15 -163 -34 -76 -19 -145 -34 -153 -34 -38 -2
-180 -34 -335 -75 -287 -77 -296 -78 -625 -80 -268 -2 -306 0 -411 20 -301 58
-490 155 -711 363 -133 126 -159 116 -32 -12 110 -110 261 -226 362 -277 400
-201 1078 -198 1723 8 70 22 205 56 300 76 l174 36 240 -6 c273 -7 310 -14
465 -82 108 -47 140 -71 140 -104 0 -21 -24 -25 -65 -9 -79 30 -332 46 -472
29 -49 -5 -132 -14 -185 -19 -130 -12 -247 -34 -364 -70 -53 -17 -105 -30
-115 -30 -18 0 -195 -44 -499 -124 -269 -71 -619 -98 -795 -62 -163 34 -458
148 -539 209 -17 13 -67 43 -111 66 -190 101 -370 266 -493 450 -42 64 -85
133 -94 153 -15 33 -67 78 -91 78 -4 0 13 -41 39 -91 117 -226 304 -432 529
-581 92 -61 408 -221 525 -265 179 -68 362 -84 670 -59 278 23 293 26 635 116
570 152 695 173 1030 174 214 1 235 -1 305 -22 119 -37 143 -57 180 -154 59
-152 58 -169 -8 -126 -66 43 -206 107 -272 123 -114 29 -366 31 -618 6 -119
-13 -236 -29 -260 -38 -23 -8 -57 -17 -75 -19 -49 -7 -130 -26 -147 -35 -8 -4
-51 -15 -95 -24 -44 -9 -104 -25 -134 -36 -30 -11 -61 -17 -69 -14 -19 7 -130
-13 -162 -30 -73 -37 -369 -91 -635 -115 -60 -6 -135 -13 -165 -16 -68 -7
-332 35 -410 66 -30 12 -90 46 -133 76 -79 56 -132 73 -132 44 0 -8 34 -34 75
-57 41 -23 93 -51 115 -64 68 -37 138 -57 315 -85 154 -25 178 -27 238 -16 37
7 141 21 232 32 188 23 351 52 442 79 35 11 83 22 108 26 59 9 331 70 445 100
97 26 122 31 348 70 234 40 338 48 484 36 260 -22 441 -89 584 -215 10 -7 33
-64 53 -126 51 -157 48 -168 -22 -101 -26 25 -66 48 -114 65 -67 25 -87 34
-143 63 -40 21 -71 32 -105 36 -19 3 -48 9 -65 15 -29 10 -176 48 -225 58 -95
19 -205 27 -410 28 -232 1 -237 1 -390 -33 -211 -45 -353 -90 -519 -161 -155
-67 -328 -113 -572 -155 -364 -61 -720 -12 -933 130 -57 38 -81 43 -89 21 -14
-37 133 -129 263 -165 39 -11 85 -29 103 -40 40 -24 280 -85 419 -105 134 -20
304 -20 388 0 36 8 107 28 158 44 214 69 778 220 891 239 152 26 376 28 529 5
171 -25 395 -86 532 -145 148 -64 283 -159 336 -238 49 -73 174 -294 174 -308
0 -12 -38 25 -187 186 -75 79 -85 87 -238 164 -166 83 -353 157 -464 183 -100
24 -287 19 -476 -12 -210 -34 -348 -40 -518 -24 -144 13 -156 11 -157 -26 0
-15 78 -45 215 -84 61 -17 171 -60 245 -95 256 -121 390 -154 651 -160 269 -7
483 -44 667 -115 84 -33 201 -96 245 -132 l28 -23 -12 -112 c-7 -62 -18 -113
-23 -113 -6 0 -26 15 -46 34 -38 37 -255 154 -354 191 -79 30 -209 51 -431 70
-263 23 -426 56 -515 105 -19 11 -48 26 -65 35 -16 9 -50 27 -74 40 -46 26
-71 31 -71 16 0 -26 173 -122 290 -159 97 -32 212 -50 450 -72 274 -25 304
-31 425 -90 55 -26 134 -64 175 -84 92 -43 139 -81 185 -151 34 -51 35 -56 25
-94 -6 -23 -14 -41 -19 -41 -4 0 -32 13 -62 29 -61 33 -117 51 -274 86 -60 14
-163 41 -228 60 -182 54 -225 58 -433 44 -181 -13 -183 -13 -344 15 -89 15
-235 48 -324 73 -88 24 -224 60 -301 78 -275 67 -427 136 -524 239 -39 41 -51
45 -51 17 0 -30 101 -114 197 -163 103 -53 199 -86 373 -127 69 -16 190 -48
270 -71 80 -22 192 -50 250 -61 58 -11 132 -27 166 -35 95 -22 263 -29 359
-14 107 17 181 5 403 -61 90 -27 202 -53 250 -59 105 -13 157 -35 210 -88 44
-44 64 -97 55 -143 -10 -52 -20 -51 -176 6 -279 103 -425 135 -626 135 -69 0
-205 6 -301 12 -97 6 -462 12 -820 12 -730 2 -684 -2 -947 87 -147 50 -333
133 -425 189 -54 34 -68 37 -68 15 0 -39 276 -168 570 -266 l208 -69 593 0
c427 0 645 -5 774 -15 99 -8 269 -15 378 -15 216 0 281 -9 432 -60 49 -17 125
-40 170 -51 100 -27 194 -69 220 -99 16 -18 20 -34 18 -84 -1 -33 -4 -131 -5
-218 -2 -86 -7 -160 -11 -165 -5 -4 -32 18 -60 49 -100 109 -228 186 -422 253
-60 21 -115 42 -121 47 -6 5 -51 13 -100 19 -49 6 -97 15 -106 20 -9 5 -31 9
-48 9 -18 0 -58 6 -89 14 -82 21 -221 35 -426 41 -99 4 -220 12 -270 20 -141
22 -401 38 -890 55 -221 8 -283 13 -345 30 -125 35 -123 34 -118 19 6 -18 40
-34 114 -54 41 -12 133 -19 309 -25 461 -16 863 -42 940 -61 22 -5 150 -14
285 -19 259 -10 275 -12 495 -59 248 -54 561 -166 667 -239 58 -40 131 -120
158 -172 33 -65 30 -253 -4 -266 -8 -3 -49 18 -92 46 -44 29 -126 74 -184 102
-58 28 -172 83 -255 123 -283 138 -473 211 -604 230 -52 8 -129 26 -170 40
-42 13 -123 31 -181 40 -58 8 -143 22 -190 31 -58 11 -146 16 -275 16 -221 1
-331 -17 -462 -75 -43 -19 -89 -38 -103 -42 -46 -14 -164 -77 -225 -120 -33
-23 -95 -79 -137 -123 -116 -122 -183 -275 -164 -377 6 -28 11 -35 30 -35 24
0 36 29 36 89 0 15 7 53 15 86 18 69 57 124 171 241 73 75 90 86 224 152 80
39 195 88 255 108 103 35 121 37 290 46 260 12 342 3 763 -91 182 -41 253 -62
385 -115 174 -70 577 -261 688 -327 98 -58 159 -115 159 -146 0 -37 -53 -243
-62 -243 -4 0 -8 6 -8 14 0 43 -81 144 -143 179 -21 12 -47 35 -57 52 -45 73
-291 197 -465 235 -275 59 -291 62 -410 62 -160 0 -354 -25 -430 -57 -33 -13
-71 -25 -85 -25 -14 0 -63 -14 -110 -30 -46 -17 -92 -28 -101 -25 -18 6 -170
-45 -239 -80 -55 -28 -225 -200 -272 -275 -19 -30 -42 -74 -51 -97 -19 -48
-42 -206 -40 -273 1 -25 2 -73 2 -107 2 -146 129 -437 245 -561 57 -62 220
-129 337 -139 120 -10 273 51 369 149 53 53 92 122 83 145 -10 26 -38 9 -60
-38 -26 -55 -81 -104 -163 -148 -142 -76 -229 -87 -357 -46 -111 35 -154 63
-178 111 -11 22 -39 67 -61 100 -55 80 -67 105 -97 199 -39 124 -47 169 -40
225 5 44 3 55 -12 66 -16 12 -16 20 -6 101 6 48 13 102 15 119 7 53 78 182
134 244 142 157 431 287 766 345 111 19 181 19 376 0 320 -32 499 -69 612
-126 20 -10 65 -40 100 -66 35 -27 97 -69 138 -95 90 -55 108 -79 155 -194
l36 -89 -12 -95 c-15 -135 -58 -290 -129 -475 -34 -88 -75 -196 -92 -240 -69
-187 -252 -514 -358 -637 l-32 -38 27 -10 c14 -5 30 -10 35 -10 4 0 23 -17 41
-37 59 -69 179 -173 199 -173 15 0 30 22 62 88 23 48 58 113 79 144 20 32 53
104 74 160 38 103 134 298 193 393 39 63 92 195 92 229 0 14 6 45 14 68 8 24
18 61 22 83 4 22 18 71 30 109 13 38 22 71 20 73 -2 3 0 19 5 36 6 18 21 91
35 162 13 72 31 155 39 185 8 30 15 68 15 85 0 40 12 54 80 95 76 46 114 57
232 70 57 6 135 21 175 32 68 19 81 20 250 9 308 -20 450 -48 583 -116 36 -18
113 -56 173 -85 164 -79 241 -159 336 -348 60 -119 74 -189 75 -372 1 -183
-15 -267 -71 -372 -48 -89 -108 -155 -174 -195 -62 -37 -153 -63 -219 -63
-112 0 -241 66 -310 157 -42 56 -120 211 -120 238 0 24 -12 45 -26 45 -30 0
-11 -116 34 -209 35 -73 174 -214 239 -243 33 -14 76 -22 138 -26 251 -12 432
110 518 350 19 51 38 111 42 133 10 52 12 195 3 201 -4 3 -3 17 3 32 7 18 7
28 0 30 -7 2 -9 19 -5 40 12 81 -63 284 -150 406 -97 136 -250 240 -504 342
-123 49 -183 63 -380 85 -228 25 -380 25 -480 0 -43 -11 -117 -24 -166 -31
-97 -12 -135 -25 -193 -64 -55 -38 -67 -35 -60 15 13 96 108 234 216 313 61
45 334 202 426 244 38 18 87 47 110 63 22 17 90 59 150 93 155 88 278 165 366
227 42 30 118 83 169 119 51 35 176 134 278 220 102 85 221 185 265 222 44 37
89 82 99 100 11 18 41 56 67 83 100 105 267 446 322 655 16 64 18 84 9 96 -32
37 -56 1 -91 -138 -40 -162 -207 -387 -384 -521 -44 -33 -105 -83 -135 -112
-30 -28 -89 -72 -130 -96 -41 -24 -185 -123 -320 -219 -135 -96 -290 -202
-345 -234 -55 -33 -120 -72 -144 -88 -25 -15 -48 -28 -53 -28 -5 0 -60 -31
-121 -68 -62 -38 -166 -99 -232 -137 -66 -37 -142 -87 -170 -110 -27 -23 -66
-50 -85 -60 -19 -10 -58 -35 -86 -57 -28 -21 -55 -38 -61 -38 -13 0 -6 180 9
230 21 70 146 213 244 279 79 54 296 162 449 225 55 23 155 78 223 121 67 44
165 107 217 140 51 33 121 83 155 110 34 28 76 60 93 73 56 40 147 132 147
147 0 8 12 22 26 32 38 26 163 156 164 169 0 7 6 14 13 17 14 5 99 127 117
167 6 14 22 43 35 65 14 22 25 50 25 62 0 35 97 170 188 261 88 89 105 125 25
51 -87 -80 -143 -152 -278 -354 -265 -399 -451 -580 -866 -844 -187 -119 -229
-142 -450 -246 -299 -141 -359 -179 -468 -298 -27 -30 -47 -45 -53 -39 -18 18
21 316 45 338 6 6 50 22 97 34 126 33 219 69 275 105 28 18 88 54 134 80 157
90 262 178 437 365 33 36 96 99 141 141 96 91 163 174 323 399 158 222 219
318 272 425 43 85 88 202 88 226 0 6 11 38 24 72 13 34 33 104 45 155 12 51
25 101 30 110 12 25 41 153 41 182 0 15 5 31 10 36 6 6 17 46 24 90 16 89 63
280 106 429 59 206 72 264 65 285 -4 11 -12 20 -18 18 -21 -6 -64 -109 -82
-192 -23 -110 -50 -165 -132 -271 -97 -123 -128 -153 -315 -306 -90 -73 -215
-180 -278 -237 -63 -58 -186 -158 -273 -224 -87 -66 -208 -166 -270 -222 -62
-56 -151 -134 -199 -174 -48 -40 -102 -91 -120 -114 -18 -23 -81 -90 -140
-148 -107 -106 -166 -186 -231 -316 -48 -95 -101 -249 -127 -370 -11 -54 -25
-103 -30 -108 -18 -18 -34 81 -33 214 1 189 25 276 147 529 52 108 114 239
139 291 73 155 179 289 365 462 132 123 199 200 382 443 88 116 200 262 250
325 206 259 366 535 389 668 19 110 -1 114 -33 7 -38 -128 -115 -265 -244
-436 -318 -423 -533 -704 -581 -759 -31 -36 -139 -150 -241 -255 -214 -220
-259 -279 -336 -441 -31 -66 -93 -198 -139 -294 -46 -96 -93 -205 -105 -243
-12 -37 -25 -67 -29 -67 -5 0 -17 26 -28 58 -18 52 -19 74 -13 267 l6 210 98
260 c79 210 114 289 183 410 172 302 422 654 609 855 69 73 324 376 435 515
35 43 72 107 99 167 23 53 48 102 56 109 8 6 14 19 14 28 0 9 5 22 11 28 18
18 50 112 59 178 5 33 12 79 16 103 4 28 3 42 -4 42 -22 0 -41 -46 -57 -140
-9 -52 -22 -102 -30 -110 -7 -8 -34 -62 -59 -119 -69 -156 -143 -279 -211
-351 -82 -87 -159 -178 -232 -275 -34 -44 -95 -118 -138 -165 -208 -228 -413
-517 -610 -860 -43 -74 -90 -162 -105 -195 -58 -125 -163 -423 -181 -509 -10
-48 -20 -90 -22 -92 -18 -19 -55 104 -63 211 -5 64 -2 98 16 170 32 127 43
149 177 350 65 99 161 246 213 328 52 81 140 207 194 280 55 72 205 290 333
482 234 350 352 556 387 675 9 30 34 103 57 162 28 77 45 144 58 235 18 124
18 163 0 163 -16 0 -30 -51 -40 -135 -15 -138 -26 -193 -55 -268 -32 -86 -145
-350 -175 -410 -36 -70 -467 -713 -569 -849 -53 -70 -139 -192 -191 -273 -52
-80 -157 -241 -234 -359 -142 -215 -157 -245 -196 -394 -12 -46 -26 -81 -32
-79 -6 2 -21 32 -33 68 -18 52 -22 80 -19 149 4 92 15 131 65 231 54 108 220
373 317 507 51 70 101 147 113 170 11 24 35 65 54 90 18 26 48 76 66 112 18
36 46 84 62 108 16 23 40 67 53 97 14 30 47 79 75 110 27 30 50 61 50 69 0 8
15 36 33 62 137 200 170 253 225 360 59 117 95 213 140 374 28 99 39 165 56
345 9 83 20 174 26 202 9 42 8 60 -4 98 -9 25 -16 55 -16 66 0 12 -5 19 -12
17 -9 -3 -14 -30 -15 -79 -4 -130 -25 -352 -39 -410 -8 -31 -14 -71 -14 -89 0
-17 -5 -41 -12 -53 -6 -12 -19 -62 -29 -111 -13 -63 -36 -127 -83 -225 -36
-75 -69 -147 -74 -161 -5 -14 -63 -99 -127 -190 -65 -91 -141 -201 -170 -245
-28 -44 -86 -127 -128 -183 -51 -68 -101 -152 -146 -245 -67 -141 -244 -418
-399 -627 -39 -52 -83 -118 -97 -147 -38 -77 -49 -69 -42 30 7 88 19 135 94
352 53 156 77 199 199 366 46 63 84 121 84 130 0 9 7 22 16 30 8 7 68 85 131
173 64 89 132 178 151 198 35 36 55 68 163 253 98 166 162 349 141 404 -8 22
-9 21 -25 -16 -9 -21 -33 -81 -53 -133 -37 -95 -150 -315 -207 -400 -16 -25
-49 -65 -72 -90 -46 -49 -118 -149 -242 -335 -44 -66 -103 -147 -131 -180 -88
-103 -153 -235 -257 -518 -9 -26 -22 -46 -29 -44 -16 5 -20 121 -6 187 6 30
28 96 47 145 19 50 53 140 74 202 42 121 67 166 290 513 80 124 162 254 184
290 21 36 56 84 77 108 35 39 78 118 78 144 0 6 16 28 36 50 37 41 43 80 14
86 -10 2 -23 -14 -38 -45 -29 -64 -76 -125 -142 -187 -351 -325 -483 -489
-616 -761 -35 -71 -64 -135 -64 -141 0 -6 -7 -18 -17 -25 -15 -13 -15 -10 -9
36 12 75 69 270 132 447 59 166 71 187 240 421 103 142 142 178 404 374 246
184 330 255 395 333 25 30 60 71 77 90 32 37 108 183 108 209 0 9 10 45 21 81
12 38 20 89 19 123 0 31 -1 74 -1 95 0 20 -5 58 -11 85 -7 33 -7 51 0 60 8 9
8 25 1 52 -6 22 -11 69 -13 105 -2 40 -9 75 -19 91 -10 14 -15 28 -12 31 9 8
-70 227 -138 384 -87 199 -112 261 -127 309 -21 68 -40 103 -60 108 -31 8 -40
-14 -24 -58 32 -87 34 -100 24 -181 -14 -112 -67 -306 -126 -457 -20 -50 -47
-120 -60 -155 -28 -72 -31 -79 -159 -357 -117 -252 -148 -330 -175 -431 -11
-43 -22 -79 -25 -82 -24 -24 -24 82 0 323 21 208 39 293 75 365 17 33 30 65
30 73 0 7 17 42 39 78 21 35 42 75 46 89 4 14 18 42 31 62 13 20 32 63 43 96
12 33 29 75 40 94 55 93 106 351 96 478 -15 188 -51 336 -107 441 -32 62 -88
123 -88 98z m141 -450 c16 -177 -5 -329 -67 -495 -31 -84 -110 -256 -232 -504
-66 -133 -79 -187 -98 -390 -26 -287 -31 -410 -25 -605 5 -172 8 -190 24 -193
26 -5 48 17 42 42 -3 11 10 91 29 176 19 85 44 202 55 260 22 111 62 212 221
552 45 95 103 231 130 302 27 72 60 156 74 186 33 72 78 243 80 300 1 34 5 46
19 48 18 4 42 -41 92 -173 12 -34 34 -83 48 -110 13 -28 30 -76 37 -107 6 -32
22 -86 36 -120 40 -100 45 -140 54 -368 6 -174 5 -221 -6 -249 -8 -18 -14 -45
-14 -60 0 -15 -6 -35 -14 -46 -7 -11 -17 -31 -21 -45 -4 -14 -39 -71 -77 -127
-81 -119 -230 -267 -359 -356 -46 -32 -137 -94 -202 -139 -136 -93 -239 -190
-285 -268 -18 -30 -47 -75 -63 -100 -120 -180 -189 -311 -253 -484 -79 -210
-148 -509 -150 -646 -1 -83 0 -85 22 -85 21 0 28 13 67 130 80 239 205 493
314 639 65 86 257 296 272 296 21 0 2 -34 -140 -246 -142 -212 -281 -461 -281
-505 0 -11 -20 -69 -45 -129 -25 -60 -52 -135 -60 -167 -19 -73 -19 -213 0
-328 8 -49 15 -109 15 -131 0 -23 9 -61 20 -85 11 -24 20 -61 20 -82 0 -21 7
-51 15 -68 12 -21 14 -43 9 -81 -6 -47 -5 -53 18 -72 14 -12 33 -45 42 -74 9
-29 30 -74 46 -101 16 -26 48 -103 69 -170 22 -67 51 -142 65 -166 19 -31 26
-58 26 -95 0 -28 5 -60 11 -71 13 -26 34 -143 54 -314 9 -77 27 -197 41 -268
13 -70 24 -145 24 -166 0 -47 9 -55 37 -36 15 11 21 30 26 80 20 210 123 513
249 735 81 141 527 566 856 817 189 143 291 228 441 368 57 53 131 114 163
137 60 40 185 158 247 232 51 60 56 36 21 -100 -18 -65 -58 -225 -91 -354
-102 -402 -198 -649 -304 -786 -25 -32 -45 -62 -45 -67 0 -5 -53 -79 -117
-165 -96 -127 -173 -212 -424 -466 -300 -303 -310 -313 -429 -385 -180 -109
-306 -171 -385 -188 -112 -26 -207 -88 -192 -127 3 -7 2 -44 -3 -82 -5 -38
-14 -166 -20 -284 -14 -271 -26 -384 -46 -422 -28 -53 -9 -53 52 3 32 30 95
77 139 104 44 27 114 72 155 100 41 29 120 76 175 105 55 29 147 83 205 120
58 37 167 103 242 149 75 45 161 101 190 125 29 24 112 80 183 125 71 46 146
96 166 112 20 16 41 29 46 29 5 0 47 28 94 63 47 35 130 89 184 122 57 34 119
80 149 112 28 30 63 61 78 69 28 14 28 14 17 -13 -24 -63 -119 -167 -259 -283
-62 -52 -153 -130 -195 -169 -103 -93 -366 -280 -630 -446 -70 -44 -151 -95
-179 -114 -50 -33 -99 -60 -490 -270 -103 -55 -206 -114 -227 -129 -72 -53
-131 -146 -185 -289 -24 -63 -26 -76 -24 -177 0 -32 -6 -82 -14 -110 -8 -28
-28 -131 -45 -229 -17 -98 -42 -210 -55 -250 -13 -40 -32 -110 -41 -157 -20
-101 -62 -218 -105 -298 -17 -31 -94 -186 -170 -344 -148 -306 -183 -368 -203
-368 -31 0 -177 144 -177 175 0 6 45 87 101 180 56 94 119 203 140 243 39 72
196 470 250 633 36 110 70 275 74 364 3 66 63 324 84 364 24 45 47 277 62 641
5 135 10 250 9 255 0 6 -4 39 -8 74 -6 49 -3 96 15 205 13 77 28 200 33 271 5
72 14 173 19 224 l10 95 -43 80 c-62 119 -202 335 -244 379 -20 21 -66 54
-102 74 -36 19 -82 47 -103 61 -20 13 -49 26 -63 28 -14 1 -35 9 -47 17 -12 8
-43 16 -69 19 -26 3 -64 14 -85 25 -22 11 -50 21 -63 21 -31 0 -152 32 -164
43 -6 5 -21 9 -34 9 -13 0 -32 4 -42 10 -46 25 -357 31 -530 10 -98 -11 -188
-32 -315 -71 -49 -15 -124 -35 -165 -45 -41 -9 -149 -41 -240 -70 -388 -125
-442 -135 -634 -114 -106 11 -139 21 -119 33 5 3 76 15 158 27 306 44 494 92
667 171 134 61 220 91 348 124 355 90 769 83 1162 -20 118 -30 339 -135 427
-201 150 -114 151 -115 151 -50 0 29 -7 52 -21 70 -34 43 -167 465 -153 487 3
5 12 9 20 9 28 0 13 42 -32 90 -56 60 -168 282 -160 316 4 15 -9 40 -45 89
-47 61 -59 71 -153 116 -90 44 -114 51 -197 59 -52 5 -110 14 -129 20 -19 5
-57 10 -85 10 -63 0 -91 15 -54 28 82 32 339 42 441 18 31 -7 76 -27 99 -44
48 -36 61 -39 79 -17 18 22 5 56 -46 118 -51 63 -61 68 -259 123 -152 42 -240
51 -350 34 -44 -6 -138 -15 -210 -20 l-130 -9 -340 -114 c-187 -63 -432 -147
-545 -186 -278 -98 -369 -120 -515 -128 -205 -10 -491 24 -665 79 -160 51
-215 85 -342 217 -288 296 -520 651 -698 1066 -45 106 -73 225 -52 225 5 0 68
-43 138 -95 105 -77 175 -118 369 -214 239 -119 349 -165 520 -216 50 -15 144
-44 210 -65 167 -53 223 -66 360 -85 66 -9 230 -38 365 -65 275 -55 304 -60
660 -95 263 -27 426 -51 566 -85 45 -10 137 -28 205 -40 68 -11 187 -38 264
-60 77 -22 188 -46 246 -54 58 -8 132 -25 163 -37 78 -29 85 -21 96 107 15
173 38 249 164 537 31 71 67 161 80 200 13 40 42 110 65 157 44 92 89 257 116
422 9 56 23 139 30 183 11 59 14 175 14 447 0 222 3 380 10 400 5 18 20 80 31
138 20 93 60 206 90 250 6 8 23 42 38 75 14 33 69 145 120 250 109 221 144
319 167 470 10 61 19 114 22 118 13 22 24 -19 34 -124z m-1382 -5238 c64 -22
141 -45 171 -51 91 -21 336 -156 455 -250 72 -58 151 -137 143 -145 -3 -3 -45
10 -92 29 -213 86 -355 115 -626 127 -118 5 -278 17 -355 27 -138 19 -142 20
-358 113 -120 52 -218 98 -217 104 0 5 35 10 77 11 43 1 145 14 226 28 82 14
178 26 215 27 37 0 90 4 117 9 94 14 128 10 244 -29z"/>
<path d="M6526 9040 c-3 -8 -15 -49 -25 -91 -32 -126 -121 -350 -166 -419 -52
-79 -80 -134 -112 -219 -34 -91 -74 -260 -67 -287 4 -15 -11 -59 -44 -132 -53
-115 -84 -206 -75 -216 15 -15 41 -4 52 22 27 59 92 128 216 231 147 121 185
170 216 275 20 71 34 108 103 261 39 88 45 132 19 142 -19 7 -42 -17 -95 -106
-35 -58 -68 -80 -68 -45 0 9 13 73 29 143 44 187 54 255 49 340 -5 78 -21 131
-32 101z m-60 -421 c-8 -59 -50 -198 -76 -249 -9 -19 -15 -41 -13 -47 8 -22
47 -14 86 18 21 17 41 29 44 25 3 -3 -2 -32 -11 -64 -9 -32 -16 -70 -16 -84 0
-32 -73 -133 -152 -211 -63 -62 -135 -114 -144 -104 -3 3 0 23 7 44 7 21 14
72 14 113 2 99 28 170 150 407 54 103 99 191 102 196 11 19 15 2 9 -44z"/>
<path d="M1600 6772 c0 -15 13 -48 29 -73 42 -66 444 -467 537 -536 111 -82
434 -249 499 -257 72 -10 470 11 584 30 143 24 260 66 421 155 255 139 473
185 750 161 63 -6 116 -9 119 -7 2 2 1 14 -2 27 -7 25 -29 30 -382 88 -66 11
-156 26 -200 35 -44 8 -114 14 -155 15 -63 0 -82 -4 -120 -26 -62 -35 -350
-139 -490 -176 -161 -42 -330 -50 -450 -19 -89 22 -114 36 -92 50 7 4 93 11
190 14 200 7 242 16 387 80 75 34 100 49 100 63 0 14 -6 18 -25 16 -14 -1 -86
-5 -160 -8 -202 -10 -356 11 -745 101 -104 24 -230 51 -280 60 -140 25 -315
102 -398 174 -34 30 -89 61 -107 61 -5 0 -10 -13 -10 -28z m267 -178 c74 -33
143 -54 245 -75 79 -17 177 -38 218 -49 211 -53 470 -93 683 -106 124 -7 143
-18 73 -41 -90 -30 -171 -35 -502 -28 -246 5 -334 4 -339 -5 -13 -20 5 -25
123 -31 108 -5 125 -9 219 -48 125 -51 212 -71 318 -71 158 0 300 33 588 136
174 63 179 64 275 63 118 -1 254 -20 259 -36 4 -11 -81 -43 -113 -43 -45 0
-148 -45 -211 -93 -110 -84 -273 -145 -488 -183 -45 -8 -185 -17 -320 -21
-286 -7 -269 -11 -515 135 -176 105 -224 139 -385 276 -101 86 -255 243 -255
260 0 13 29 4 127 -40z"/>
<path d="M7869 5853 c-15 -9 -32 -35 -43 -66 -15 -41 -43 -75 -164 -196 -81
-81 -165 -160 -187 -176 -22 -16 -78 -63 -125 -106 -47 -42 -155 -125 -240
-184 -227 -158 -280 -202 -440 -365 -161 -163 -253 -283 -334 -440 -82 -158
-186 -450 -201 -561 -3 -26 -21 -72 -40 -104 -54 -88 -41 -129 20 -65 16 17
34 30 41 30 7 0 15 8 19 18 3 9 76 67 162 127 411 288 653 483 842 674 155
159 158 162 173 197 7 16 45 63 85 104 39 41 84 93 99 115 14 22 37 53 50 68
13 16 24 35 24 42 0 7 16 32 35 55 19 23 35 49 35 58 0 8 6 23 14 31 25 29
161 414 200 566 15 60 19 164 7 183 -4 7 -15 5 -32 -5z m-74 -212 c7 -12 -55
-251 -90 -351 -45 -124 -115 -260 -182 -348 -35 -46 -63 -87 -63 -91 0 -3 -27
-33 -61 -66 -33 -33 -88 -100 -122 -148 -113 -166 -330 -362 -702 -637 -162
-120 -343 -240 -362 -240 -17 0 -16 13 6 79 11 31 27 83 37 116 9 33 27 85 40
115 12 30 45 112 72 182 74 186 132 268 337 473 83 83 353 307 401 333 25 13
196 147 312 244 48 40 148 135 222 210 74 75 138 137 142 138 4 0 9 -4 13 -9z"/>
<path d="M7548 5321 c-68 -115 -180 -237 -359 -393 -405 -350 -526 -466 -628
-603 -82 -111 -83 -112 -165 -263 -65 -119 -74 -152 -42 -152 16 0 39 27 97
117 41 64 285 307 349 348 61 39 244 204 265 239 12 19 54 70 95 113 132 137
370 458 370 497 0 13 13 49 28 80 33 64 25 76 -10 17z m-351 -499 c-44 -64
-277 -294 -422 -416 -137 -115 -191 -153 -202 -142 -8 8 38 75 106 154 58 67
346 328 386 349 11 6 49 34 85 63 69 55 88 52 47 -8z"/>
<path d="M1198 9611 c-23 -27 -25 -39 -36 -247 -14 -243 -7 -365 28 -475 11
-35 20 -70 20 -78 0 -30 -36 19 -80 109 -24 49 -49 89 -55 86 -14 -5 -9 -19
36 -111 71 -145 197 -281 369 -399 36 -25 142 -83 235 -130 94 -47 193 -104
220 -125 28 -22 90 -68 139 -103 49 -35 109 -78 134 -96 39 -29 46 -32 59 -20
12 13 5 20 -51 53 -36 21 -124 82 -196 136 -96 72 -174 120 -293 180 -152 76
-289 158 -303 180 -14 23 8 17 107 -30 132 -61 223 -94 324 -115 156 -33 201
-53 271 -119 36 -33 116 -128 178 -211 161 -214 261 -321 347 -373 39 -24 77
-43 85 -43 23 0 28 48 9 90 -12 27 -16 51 -12 77 6 33 2 46 -27 85 -18 26 -48
82 -66 125 -40 94 -104 206 -142 251 -15 18 -28 36 -28 41 0 8 -48 74 -74 101
-9 9 -84 58 -169 108 -129 78 -177 101 -299 142 -304 102 -467 213 -563 384
-67 119 -125 344 -125 482 0 34 -4 65 -9 68 -5 4 -20 -7 -33 -23z m88 -445
c60 -164 108 -237 195 -296 37 -25 81 -58 99 -73 47 -40 68 -49 265 -117 212
-73 222 -78 397 -192 124 -81 144 -98 193 -167 31 -42 72 -97 93 -123 71 -89
172 -372 143 -401 -21 -21 -198 154 -317 317 -98 132 -238 281 -290 306 -23
11 -102 33 -175 49 -159 34 -258 71 -392 145 -140 77 -180 113 -221 199 -53
107 -67 174 -73 334 -8 223 7 226 83 19z"/>
<path d="M6612 7585 c0 -16 2 -22 5 -12 2 9 2 23 0 30 -3 6 -5 -1 -5 -18z"/>
</g>
</svg>
