<?xml version="1.0" standalone="no"?>
<!DOCTYPE svg PUBLIC "-//W3C//DTD SVG 20010904//EN"
 "http://www.w3.org/TR/2001/REC-SVG-20010904/DTD/svg10.dtd">
<svg version="1.0" xmlns="http://www.w3.org/2000/svg"
 width="1280.000000pt" height="960.000000pt" viewBox="0 0 1280.000000 960.000000"
 preserveAspectRatio="xMidYMid meet">
<g transform="translate(0.000000,960.000000) scale(0.100000,-0.100000)"
fill="#ffc500" stroke="none">
<path d="M6191 8570 c-644 -67 -1163 -268 -1596 -617 -396 -319 -628 -683
-717 -1125 -20 -97 -23 -143 -23 -328 1 -378 69 -698 207 -974 22 -44 36 -82
31 -87 -5 -5 -81 -29 -168 -53 -422 -117 -778 -260 -1000 -404 -85 -55 -213
-177 -262 -251 -170 -256 -72 -532 272 -763 272 -182 632 -296 1070 -339 137
-13 602 -7 785 11 464 45 827 138 1159 296 74 35 141 64 149 64 8 0 58 -13
111 -29 369 -113 664 -158 976 -148 590 20 934 167 1149 490 125 189 162 374
117 592 -36 175 -107 302 -243 430 -137 131 -354 254 -576 329 -57 19 -106 37
-110 40 -3 4 -7 66 -8 139 -7 539 -200 980 -540 1235 -143 108 -372 204 -599
252 -323 68 -859 8 -1095 -121 -8 -5 -39 -20 -67 -34 -29 -15 -55 -30 -58 -36
-4 -5 -17 -9 -31 -9 -13 0 -24 -6 -24 -13 0 -8 -17 -26 -37 -40 -40 -28 -58
-24 -66 16 -2 12 -5 2 -6 -23 -1 -38 -7 -51 -37 -80 -64 -62 -132 -159 -165
-238 -43 -102 -51 -237 -20 -352 20 -74 20 -75 0 -100 -10 -14 -54 -74 -97
-134 -122 -172 -244 -342 -334 -465 -46 -62 -87 -119 -93 -127 -12 -17 4 -47
27 -52 8 -2 57 29 108 67 91 68 246 155 535 299 78 38 165 84 194 101 39 24
74 34 132 42 208 26 337 107 411 257 29 59 33 78 36 164 5 121 -16 223 -65
328 -28 59 -53 92 -117 155 -45 44 -102 90 -127 103 l-44 23 30 -22 c60 -47
155 -143 190 -193 20 -29 46 -83 59 -122 29 -86 50 -239 41 -304 -15 -112
-110 -246 -207 -293 -49 -24 -165 -55 -171 -46 -1 2 -9 17 -17 34 -9 16 -24
31 -34 33 -10 2 -45 -13 -78 -34 l-61 -37 -44 23 c-24 13 -53 36 -64 52 -11
15 -26 28 -33 28 -7 0 -25 13 -40 28 -20 22 -26 37 -24 65 2 37 -15 67 -39 67
-21 0 -40 55 -54 151 -10 72 -9 94 5 149 34 137 132 287 232 359 32 23 63 41
69 41 7 0 20 9 30 20 10 11 24 20 30 20 7 0 18 6 24 14 17 20 90 57 101 51 4
-3 10 0 12 5 2 6 10 12 18 13 8 2 26 10 40 19 39 26 166 64 271 82 133 23 397
39 504 31 410 -30 823 -226 1011 -479 160 -214 238 -411 280 -696 17 -119 25
-372 11 -386 -4 -4 -58 2 -120 14 -161 31 -302 42 -547 42 -741 0 -1490 -90
-2344 -282 -210 -47 -181 -57 -256 97 -128 264 -193 567 -193 895 -1 589 283
1074 851 1451 353 234 722 369 1192 436 98 14 188 18 415 17 310 0 437 -13
685 -69 367 -82 756 -273 1035 -507 606 -508 919 -1219 919 -2088 -1 -267 -12
-359 -109 -850 -83 -421 -107 -559 -130 -740 -17 -140 -20 -368 -5 -419 12
-43 47 -81 74 -80 20 0 20 1 -1 9 -12 5 -26 22 -29 37 -14 54 58 464 136 773
43 175 135 592 159 730 97 550 54 1119 -124 1615 -87 244 -250 546 -408 755
-87 115 -303 339 -412 427 -127 103 -298 212 -460 294 -272 137 -541 218 -880
264 -139 20 -555 28 -684 15z m-1329 -2367 c15 -15 28 -32 28 -38 0 -7 -37
-43 -82 -81 -90 -75 -111 -96 -176 -173 -24 -28 -48 -51 -53 -51 -18 0 -8 25
29 69 21 25 62 82 92 126 73 110 121 175 128 175 3 0 19 -12 34 -27z m142
-124 c20 -12 36 -25 36 -31 0 -11 -250 -132 -258 -124 -7 8 159 176 174 176 7
0 29 -9 48 -21z m2146 -458 c137 -15 229 -33 240 -45 6 -8 -1 -41 -20 -93
-133 -383 -494 -826 -915 -1128 -116 -83 -353 -225 -375 -225 -31 0 -292 108
-456 188 -299 147 -579 320 -784 482 -137 108 -389 361 -474 475 -58 78 -65
91 -51 101 18 13 198 49 530 104 540 90 1027 139 1530 154 191 6 676 -3 775
-13z m440 -82 c338 -92 613 -263 723 -450 67 -114 106 -288 92 -413 -9 -89
-54 -212 -111 -303 -56 -91 -184 -223 -268 -277 -120 -79 -308 -139 -533 -173
-167 -24 -496 -24 -658 1 -198 30 -552 122 -583 150 -10 10 17 31 127 103 188
124 320 232 481 393 295 295 492 590 586 876 27 82 42 114 53 114 9 0 50 -9
91 -21z m-3374 -281 c130 -188 271 -338 479 -511 287 -240 656 -455 1064 -620
85 -34 156 -67 158 -73 2 -7 -29 -26 -70 -43 -381 -158 -772 -236 -1314 -263
-258 -13 -457 -5 -713 27 -453 58 -857 227 -1066 448 -122 128 -156 233 -114
357 101 304 503 523 1330 726 74 18 147 33 162 33 22 1 36 -12 84 -81z"/>
<path d="M5875 7791 c-3 -6 0 -11 8 -11 8 0 22 -10 31 -22 14 -20 16 -20 14
-4 -4 24 -43 52 -53 37z"/>
<path d="M5655 7760 c-3 -5 3 -10 14 -10 12 0 21 -5 21 -12 0 -6 2 -9 5 -6 3
3 3 13 -1 22 -7 18 -29 22 -39 6z"/>
<path d="M5180 7742 c0 -5 7 -15 15 -22 8 -7 15 -8 15 -2 0 5 -7 15 -15 22 -8
7 -15 8 -15 2z"/>
<path d="M5303 7730 c-23 -9 -23 -28 0 -57 14 -20 24 -16 23 10 -1 13 5 22 14
22 8 0 14 -8 14 -17 -1 -12 5 -18 18 -18 12 0 22 -9 25 -21 4 -15 11 -19 26
-15 12 3 27 0 34 -6 19 -16 29 -1 15 22 -7 11 -12 29 -12 40 0 24 -13 25 -45
4 -28 -18 -49 -9 -60 27 -7 21 -18 23 -52 9z"/>
<path d="M4974 7569 c-5 -8 -2 -10 8 -6 9 3 21 0 28 -6 10 -9 11 -9 8 3 -6 19
-34 25 -44 9z"/>
<path d="M4860 7540 c0 -5 9 -14 20 -20 22 -12 27 -1 8 18 -14 14 -28 16 -28
2z"/>
<path d="M5015 7510 c-4 -7 -16 -10 -26 -7 -11 3 -17 1 -13 -4 7 -12 41 -11
49 2 4 6 5 13 2 15 -3 3 -8 0 -12 -6z"/>
<path d="M5250 7428 c0 -7 5 -20 10 -28 8 -12 10 -9 10 13 0 15 -4 27 -10 27
-5 0 -10 -6 -10 -12z"/>
<path d="M5090 7410 c0 -5 5 -10 10 -10 6 0 10 5 10 10 0 6 -4 10 -10 10 -5 0
-10 -4 -10 -10z"/>
<path d="M5208 7373 c7 -3 16 -2 19 1 4 3 -2 6 -13 5 -11 0 -14 -3 -6 -6z"/>
<path d="M4930 7350 c-16 -10 -8 -23 15 -26 9 -1 15 6 15 17 0 21 -8 23 -30 9z"/>
<path d="M4790 7265 c-7 -8 -9 -16 -4 -16 5 -1 16 -2 24 -3 8 0 16 -10 18 -20
3 -15 0 -18 -18 -13 -14 3 -20 1 -17 -6 6 -20 35 -19 46 1 7 12 6 26 -2 42
-15 30 -31 35 -47 15z"/>
<path d="M4920 7270 c0 -5 7 -10 15 -10 8 0 15 5 15 10 0 6 -7 10 -15 10 -8 0
-15 -4 -15 -10z"/>
<path d="M5276 7102 c-3 -5 1 -17 8 -27 7 -10 15 -14 19 -9 3 5 -1 17 -8 27
-7 10 -16 14 -19 9z"/>
<path d="M5112 6901 c2 -7 7 -12 11 -12 12 1 9 15 -3 20 -7 2 -11 -2 -8 -8z"/>
<path d="M5165 6757 c-71 -40 -93 -118 -55 -192 11 -22 23 -58 27 -80 14 -93
53 -121 153 -112 33 3 60 2 60 -2 0 -15 -37 -41 -56 -41 -11 0 -29 -7 -40 -15
-10 -8 -29 -15 -42 -15 -12 0 -30 -4 -40 -9 -9 -5 -26 -12 -36 -16 -19 -5 -18
-7 6 -31 21 -21 35 -26 79 -26 131 -1 179 13 179 53 0 10 11 39 25 65 14 26
25 55 25 65 0 11 14 49 31 85 28 59 31 74 26 130 -10 127 -57 164 -207 164
-80 0 -101 -4 -135 -23z"/>
<path d="M8945 3665 c-16 -8 -23 -14 -14 -15 8 0 24 7 35 15 23 18 18 18 -21
0z"/>
</g>
</svg>
